<svg width="18" height="18" viewBox="0 0 18 18" fill="none" xmlns="http://www.w3.org/2000/svg">
<path d="M4.47604 17.2292L2.18437 17.2292C1.63209 17.2292 1.18437 16.7815 1.18437 16.2292V5.73966C1.18437 4.96677 1.6297 4.26305 2.3282 3.93219L8.14591 1.17643C8.68783 0.91973 9.31633 0.91973 9.85825 1.17643L15.676 3.93219C16.3745 4.26305 16.8198 4.96677 16.8198 5.73966V16.2292C16.8198 16.7815 16.3721 17.2292 15.8198 17.2292L13.5281 17.2292" stroke="#696969" stroke-width="1.5"/>
<path d="M4.47603 17.2292V10.823C4.47603 10.2707 4.92375 9.823 5.47603 9.823H12.5281C13.0804 9.823 13.5281 10.2707 13.5281 10.823V17.2292" stroke="#696969" stroke-width="1.5" stroke-linecap="round"/>
</svg>
