<svg width="18" height="19" viewBox="0 0 18 19" fill="none" xmlns="http://www.w3.org/2000/svg">
<path d="M5.00002 3.00016C5.00002 2.07969 4.25383 1.3335 3.33335 1.3335C2.41288 1.3335 1.66669 2.07969 1.66669 3.00016C1.66669 3.92064 2.41288 4.66683 3.33335 4.66683C4.25383 4.66683 5.00002 3.92064 5.00002 3.00016Z" stroke="#696969" stroke-width="1.5"/>
<path d="M11.6667 3.00016C11.6667 2.07969 10.9205 1.3335 10 1.3335C9.07957 1.3335 8.33337 2.07969 8.33337 3.00016C8.33337 3.92064 9.07957 4.66683 10 4.66683C10.9205 4.66683 11.6667 3.92064 11.6667 3.00016Z" stroke="#696969" stroke-width="1.5"/>
<path d="M18.3333 3.00016C18.3333 2.07969 17.5871 1.3335 16.6667 1.3335C15.7462 1.3335 15 2.07969 15 3.00016C15 3.92064 15.7462 4.66683 16.6667 4.66683C17.5871 4.66683 18.3333 3.92064 18.3333 3.00016Z" stroke="#696969" stroke-width="1.5"/>
</svg>
