<svg width="18" height="18" viewBox="0 0 18 18" fill="none" xmlns="http://www.w3.org/2000/svg">
<path d="M1.08334 6.18057V2.58334C1.08334 1.75492 1.75492 1.08334 2.58334 1.08334H6.18057C7.00899 1.08334 7.68057 1.75491 7.68057 2.58334V6.18057C7.68057 7.00899 7.00899 7.68057 6.18057 7.68057H2.58334C1.75492 7.68057 1.08334 7.00899 1.08334 6.18057Z" stroke="#696969" stroke-width="1.5"/>
<path d="M1.08334 15.4167V11.8195C1.08334 10.9911 1.75492 10.3195 2.58334 10.3195H6.18057C7.00899 10.3195 7.68057 10.9911 7.68057 11.8195V15.4167C7.68057 16.2452 7.00899 16.9167 6.18057 16.9167H2.58334C1.75492 16.9167 1.08334 16.2452 1.08334 15.4167Z" stroke="#696969" stroke-width="1.5"/>
<path d="M10.3193 6.18057V2.58334C10.3193 1.75492 10.9909 1.08334 11.8193 1.08334H15.4166C16.245 1.08334 16.9166 1.75491 16.9166 2.58334V6.18057C16.9166 7.00899 16.245 7.68057 15.4166 7.68057H11.8193C10.9909 7.68057 10.3193 7.00899 10.3193 6.18057Z" stroke="#696969" stroke-width="1.5"/>
<path d="M10.3193 15.4167V11.8195C10.3193 10.9911 10.9909 10.3195 11.8193 10.3195H15.4166C16.245 10.3195 16.9166 10.9911 16.9166 11.8195V15.4167C16.9166 16.2452 16.245 16.9167 15.4166 16.9167H11.8193C10.9909 16.9167 10.3193 16.2452 10.3193 15.4167Z" stroke="#696969" stroke-width="1.5"/>
</svg>
