<svg width="18" height="19" viewBox="0 0 18 19" fill="none" xmlns="http://www.w3.org/2000/svg">
<path d="M2.25 4.61107L3.19807 11.4416C3.33532 12.4304 4.18075 13.1666 5.17908 13.1666L13.5709 13.1666C14.5692 13.1666 15.4147 12.4304 15.5519 11.4416L16.2632 6.31729C16.3883 5.41552 15.6878 4.61107 14.7774 4.61107L2.25 4.61107ZM2.25 4.61107L2.00405 2.67796C1.91838 2.00461 1.34545 1.49996 0.666668 1.49996V1.49996" stroke="#696969" stroke-width="1.5"/>
<path d="M6.5 16.9166C6.5 16.2263 5.94036 15.6666 5.25 15.6666C4.55964 15.6666 4 16.2263 4 16.9166C4 17.607 4.55964 18.1666 5.25 18.1666C5.94036 18.1666 6.5 17.607 6.5 16.9166Z" stroke="#696969" stroke-width="1.5"/>
<path d="M14.8333 16.9166C14.8333 16.2263 14.2737 15.6666 13.5833 15.6666C12.893 15.6666 12.3333 16.2263 12.3333 16.9166C12.3333 17.607 12.893 18.1666 13.5833 18.1666C14.2737 18.1666 14.8333 17.607 14.8333 16.9166Z" stroke="#696969" stroke-width="1.5"/>
</svg>
